/* XPM */
static char *_99df86cc31144f8ff8e803d75a0950ccSEghXYZCwADaMqi[] = {
/* columns rows colors chars-per-pixel */
"32 32 78 1 ",
"  c None",
". c black",
"X c #010000",
"o c #040000",
"O c #050000",
"+ c #070000",
"@ c #090000",
"# c #0A0000",
"$ c #0D0000",
"% c #100000",
"& c #130000",
"* c #140000",
"= c #1B0000",
"- c #210000",
"; c #220000",
": c #2A0000",
"> c #2B0000",
", c #2D0000",
"< c #300000",
"1 c #380000",
"2 c #3C0000",
"3 c #3E0000",
"4 c #410000",
"5 c #440000",
"6 c #480000",
"7 c #510000",
"8 c #520000",
"9 c #580000",
"0 c #590000",
"q c #620000",
"w c #650000",
"e c #660000",
"r c #6A0000",
"t c #6B0000",
"y c #6D0000",
"u c #700000",
"i c #720000",
"p c #740000",
"a c #7B0000",
"s c #7D0000",
"d c #810000",
"f c #880000",
"g c #8F0000",
"h c #910000",
"j c #920000",
"k c #930000",
"l c #980000",
"z c #9B0000",
"x c #A60000",
"c c #A90000",
"v c #AA0000",
"b c #AC0000",
"n c #AD0000",
"m c #AF0000",
"M c #B20000",
"N c #B30000",
"B c #B90000",
"V c #BF0000",
"C c #C00000",
"Z c #C40000",
"A c #CA0000",
"S c #DB0000",
"D c #DD0000",
"F c #E40000",
"G c #E60000",
"H c #EA0000",
"J c #EC0000",
"K c #F00000",
"L c #F10000",
"P c #F40000",
"I c #F60000",
"U c #F70000",
"Y c #F90000",
"T c #FB0000",
"R c #FC0000",
"E c #FD0000",
"W c #FE0000",
"Q c red",
/* pixels */
"            ........            ",
"         ..............         ",
"       ..................       ",
"      ....................      ",
"     ......................     ",
"    ........................    ",
"   .......4Zca3o.............   ",
"  .......*KQQQQHg-............  ",
"  .......9QQQQQQQYh$..........  ",
" ........8QQQQQQQQQD<.......... ",
" ........%nPQQQQQQQQK1......... ",
" .........@PQQQzGQQQQH=........ ",
"..........4QQQG.ouPQQQn.........",
"..........fQQQM...4QQQQ-........",
"..........AQQQs....CQQQe........",
".........@QQQQ6....CQQQd........",
".........3QQQQ%...%YQQQy........",
".........pQQQD....hQQQQ:........",
".........nQQQx...8QQQQB.........",
".........JQQQu..6PQQQY,.........",
" .......,QQQQ3.tYQQQQt......... ",
" .......eQQQQ,MQQQQQh.......... ",
" .......qQQQYPQQQQQh........... ",
"  ......oBQQQQQQQPt...........  ",
"  .......@cQQQQQC:............  ",
"   ........9ZAz3.............   ",
"    ........................    ",
"     ......................     ",
"      ....................      ",
"       ..................       ",
"         ..............         ",
"            ........            "
};
