/* XPM */
static char *e661c16fc673476eb4149cd333c8ba16E8Kjb6Q8Dm7UL6eG[] = {
/* columns rows colors chars-per-pixel */
"16 16 45 1 ",
"  c None",
". c black",
"X c #020000",
"o c #040000",
"O c #050000",
"+ c #060000",
"@ c #0C0000",
"# c #1D0000",
"$ c #2A0000",
"% c #2C0000",
"& c #310000",
"* c #390000",
"= c #3A0000",
"- c #5F0000",
"; c #630000",
": c #660000",
"> c #670000",
", c #720000",
"< c #7F0000",
"1 c #800000",
"2 c #870000",
"3 c #8A0000",
"4 c #990000",
"5 c #9E0000",
"6 c #A40000",
"7 c #A50000",
"8 c #A60000",
"9 c #A70000",
"0 c #B20000",
"q c #B50000",
"w c #B90000",
"e c #BD0000",
"r c #C40000",
"t c #C50000",
"y c #C80000",
"u c #CD0000",
"i c #E30000",
"p c #E60000",
"a c #F00000",
"s c #F50000",
"d c #F80000",
"f c #FC0000",
"g c #FD0000",
"h c #FE0000",
"j c red",
/* pixels */
"     ......     ",
"   ..........   ",
"  ............  ",
" ...oey3%...... ",
" ...$jjjj5@.... ",
"....o9jpsjto....",
".....0j:#uj,....",
".....aj&.;jw....",
"....%js..9j9....",
"....:jt.;jj*....",
"....9j42jj<.....",
" ...2jjjf<..... ",
" ....1pq*...... ",
"  ............  ",
"   ..........   ",
"     ......     "
};
